<svg xmlns="http://www.w3.org/2000/svg">

    <symbol id="icon-communication" viewBox="0 0 16 16">
        <path d="M10 1c-0.17 0-0.36 0.05-0.52 0.14-1.44 0.88-4.98 3.44-6.48 3.86-1.38 0-3 0.67-3 2.5s1.63 2.5 3 2.5c0.3 0.08 0.64 0.23 1 0.41v4.59h2V11.55c1.34 0.86 2.69 1.83 3.48 2.31 0.16 0.09 0.34 0.14 0.52 0.14 0.52 0 1-0.42 1-1V2c0-0.58-0.48-1-1-1z m0 12c-0.38-0.23-0.89-0.58-1.5-1-0.16-0.11-0.33-0.22-0.5-0.34V3.31c0.16-0.11 0.31-0.2 0.47-0.31 0.61-0.41 1.16-0.77 1.53-1v11z m2-6h4v1H12v-1z m0 2l4 2v1L12 10v-1z m4-6v1L12 6v-1l4-2z" />
    </symbol>

    <symbol id="icon-system" viewBox="0 0 16 16">
        <path d="M8 5h-1v-1h1v1z m4 3h-1v1h1v-1zM5 5h-1v1h1v-1z m-1 3h-1v1h1v-1z m11-5.5l-0.5-0.5-6.5 5c-0.06-0.02-1 0-1 0-0.55 0-1 0.45-1 1v1c0 0.55 0.45 1 1 1h1c0.55 0 1-0.45 1-1v-0.92l6-5.58zM13.41 6.59c0.19 0.61 0.3 1.25 0.3 1.91 0 3.42-2.78 6.2-6.2 6.2S1.3 11.92 1.3 8.5s2.78-6.2 6.2-6.2c1.2 0 2.31 0.34 3.27 0.94l0.94-0.94c-1.19-0.81-2.64-1.3-4.2-1.3C3.36 1 0 4.36 0 8.5s3.36 7.5 7.5 7.5 7.5-3.36 7.5-7.5c0-1.03-0.2-2.02-0.59-2.91l-1 1z" />
    </symbol>

    <symbol id="icon-love" viewBox="0 0 480 88" stroke="none" stroke-width="1" fill="none" fill-rule="evenodd">
        <g fill="currentColor">
            <g transform="translate(383.000000, 13.000000)">
                <path d="M44.9,16.5 L54.9,16.5 L65.7,47.4 L65.9,47.4 L76.4,16.5 L85.9,16.5 L69.8,60.1 C69.1,62 68.3,63.8 67.6,65.5 C66.9,67.2 66,68.7 65,70 C64,71.3 62.7,72.3 61.1,73.1 C59.5,73.9 57.6,74.3 55.2,74.3 C53.1,74.3 51,74.1 48.9,73.8 L48.9,66.1 C49.6,66.2 50.4,66.3 51.1,66.5 C51.8,66.6 52.5,66.7 53.3,66.7 C54.4,66.7 55.2,66.6 55.9,66.3 C56.6,66 57.2,65.6 57.6,65.1 C58.1,64.6 58.4,64 58.8,63.3 C59.1,62.6 59.4,61.8 59.7,60.9 L60.7,57.7 L44.9,16.5 L44.9,16.5 Z"></path>
                <path d="M0.8,0.8 L9.9,0.8 L9.9,21.9 L10.1,21.9 C10.7,20.9 11.5,20 12.4,19.2 C13.3,18.4 14.3,17.7 15.4,17.2 C16.5,16.6 17.6,16.2 18.8,15.9 C20,15.6 21.2,15.5 22.4,15.5 C25.7,15.5 28.5,16.1 30.9,17.2 C33.3,18.3 35.3,19.9 36.9,21.9 C38.5,23.9 39.7,26.2 40.5,28.9 C41.3,31.6 41.7,34.4 41.7,37.5 C41.7,40.3 41.3,43 40.6,45.6 C39.9,48.2 38.8,50.5 37.3,52.5 C35.8,54.5 34,56.1 31.7,57.3 C29.5,58.5 26.8,59.1 23.8,59.1 C22.4,59.1 21,59 19.6,58.8 C18.2,58.6 16.8,58.3 15.6,57.7 C14.3,57.2 13.2,56.5 12.1,55.6 C11.1,54.7 10.2,53.6 9.5,52.2 L9.3,52.2 L9.3,57.9 L0.7,57.9 L0.7,0.8 L0.8,0.8 Z M32.7,37.2 C32.7,35.3 32.5,33.5 32,31.8 C31.5,30 30.8,28.5 29.8,27.1 C28.8,25.7 27.6,24.6 26.2,23.8 C24.8,23 23.1,22.6 21.2,22.6 C17.4,22.6 14.5,23.9 12.5,26.6 C10.6,29.3 9.6,32.8 9.6,37.2 C9.6,39.3 9.9,41.2 10.4,43 C10.9,44.8 11.7,46.3 12.7,47.6 C13.7,48.9 14.9,49.9 16.3,50.6 C17.7,51.3 19.4,51.7 21.2,51.7 C23.3,51.7 25,51.3 26.5,50.4 C27.9,49.5 29.1,48.4 30.1,47.1 C31,45.7 31.7,44.2 32.1,42.5 C32.5,40.8 32.7,39.1 32.7,37.2 L32.7,37.2 Z"></path>
            </g>
            <path d="M321.7,79.1 C360.9,48.2 359.4,37.3 359.4,28.8 C359.4,20.3 352.3,9.9 340.5,9.9 C328.7,9.9 321.6,22.5 321.6,22.5 C321.6,22.5 314.5,9.9 302.7,9.9 C290.9,9.9 283.8,20.2 283.8,28.8 C284,37.3 282.5,48.2 321.7,79.1 L321.7,79.1 Z"></path>
            <g transform="translate(112.000000, 13.000000)">
                <path d="M112.2,0.4 L121.3,0.4 L121.3,21.6 L121.5,21.6 C122.6,19.7 124.3,18.2 126.5,16.9 C128.7,15.6 131.2,15 133.9,15 C138.4,15 142,16.2 144.6,18.5 C147.2,20.8 148.5,24.4 148.5,29.1 L148.5,57.5 L139.4,57.5 L139.4,31.5 C139.3,28.2 138.6,25.9 137.3,24.4 C136,22.9 134,22.2 131.3,22.2 C129.8,22.2 128.4,22.5 127.1,23 C125.8,23.5 124.8,24.3 124,25.3 C123.1,26.3 122.5,27.4 122,28.8 C121.5,30.1 121.3,31.5 121.3,33 L121.3,57.4 L112.2,57.4 L112.2,0.4 L112.2,0.4 Z"></path>
                <path d="M81.5,16.2 L88.4,16.2 L88.4,3.8 L97.5,3.8 L97.5,16.2 L105.7,16.2 L105.7,23 L97.5,23 L97.5,45.1 C97.5,46.1 97.5,46.9 97.6,47.6 C97.7,48.3 97.9,48.9 98.2,49.4 C98.5,49.9 98.9,50.2 99.5,50.5 C100.1,50.7 100.9,50.9 101.9,50.9 L103.8,50.9 C104.4,50.9 105.1,50.8 105.7,50.6 L105.7,57.6 C104.7,57.7 103.7,57.8 102.7,57.9 C101.7,58 100.8,58.1 99.7,58.1 C97.3,58.1 95.4,57.9 93.9,57.4 C92.4,56.9 91.3,56.3 90.5,55.4 C89.7,54.5 89.1,53.4 88.8,52.1 C88.5,50.8 88.3,49.2 88.3,47.5 L88.3,23 L81.4,23 L81.4,16.2 L81.5,16.2 Z"></path>
                <path d="M66.6,0.4 L75.7,0.4 L75.7,9 L66.6,9 L66.6,0.4 L66.6,0.4 Z M66.6,16.2 L75.7,16.2 L75.7,57.6 L66.6,57.6 L66.6,16.2 L66.6,16.2 Z"></path>
                <path d="M0.3,16.2 L10,16.2 L18.1,47.1 L18.3,47.1 L26.1,16.2 L35.3,16.2 L42.7,47.1 L42.9,47.1 L51.3,16.2 L60.6,16.2 L47.6,57.6 L38.2,57.6 L30.5,26.9 L30.3,26.9 L22.7,57.6 L13.1,57.6 L0.3,16.2 L0.3,16.2 Z"></path>
            </g>
            <path d="M62.5,11.4 L52.7,21.2 L75.6,44.1 L52.7,67 L62.5,76.8 L92,44.1 L62.5,11.4 L62.5,11.4 Z M29.8,11.4 L0.3,44.1 L29.8,76.8 L39.6,67 L16.7,44.1 L39.6,21.2 L29.8,11.4 L29.8,11.4 Z"></path>
        </g>
    </symbol>

    <symbol id="icon-bin" viewBox="0 0 32 32">
        <g fill="currentColor">
            <path style=" " d="M 14 4 C 13.476563 4 12.941406 4.183594 12.5625 4.5625 C 12.183594 4.941406 12 5.476563 12 6 L 12 7 L 5 7 L 5 9 L 6.09375 9 L 8 27.09375 L 8.09375 28 L 23.90625 28 L 24 27.09375 L 25.90625 9 L 27 9 L 27 7 L 20 7 L 20 6 C 20 5.476563 19.816406 4.941406 19.4375 4.5625 C 19.058594 4.183594 18.523438 4 18 4 Z M 14 6 L 18 6 L 18 7 L 14 7 Z M 8.125 9 L 23.875 9 L 22.09375 26 L 9.90625 26 Z M 12 12 L 12 23 L 14 23 L 14 12 Z M 15 12 L 15 23 L 17 23 L 17 12 Z M 18 12 L 18 23 L 20 23 L 20 12 Z "></path>
        </g>
    </symbol>
</svg>
